<?xml version="1.0" encoding="UTF-8" standalone="no"?><!DOCTYPE svg PUBLIC "-//W3C//DTD SVG 1.1//EN" "http://www.w3.org/Graphics/SVG/1.1/DTD/svg11.dtd"><svg width="100%" height="100%" viewBox="0 0 1000 1000" version="1.1" xmlns="http://www.w3.org/2000/svg" xmlns:xlink="http://www.w3.org/1999/xlink" xml:space="preserve" xmlns:serif="http://www.serif.com/" style="fill-rule:evenodd;clip-rule:evenodd;stroke-linejoin:round;stroke-miterlimit:2;"><g id="background"><rect x="0" y="0" width="1000" height="1000"/></g><g><g id="favicon"><path d="M783.362,565.434c0,65.438 0,121.69 -25.257,176.798c-45.922,101.026 -144.648,164.168 -259.452,164.168c-164.168,0 -285.854,-121.694 -285.854,-293.896c0,-169.905 119.39,-293.892 285.854,-293.892c14.238,0 31.532,1.222 52.771,4.556c14.575,2.289 25.294,14.927 25.294,29.684l0,134.354c0,13.057 -12.253,22.724 -24.928,19.576c-18.205,-4.519 -33.358,-6.782 -46.248,-6.782c-68.883,0 -110.212,43.625 -110.212,112.504c0,70.027 41.329,112.508 104.471,112.508c67.731,0 105.619,-43.625 105.619,-126.287l0,-475.072c0,-16.598 13.457,-30.054 30.054,-30.054l117.835,0c16.598,0 30.054,13.457 30.054,30.054l0,441.78Z" style="fill:#fff;fill-rule:nonzero;"/></g></g></svg>